# xmcd
#
# Track frame offsets:
#	150
#	17705
#	26543
#	41685
#	52213
#	62168
#	82583
#	100690
#	118383
#	137798
#	157693
#	169830
#	182943
#	194845
#	206780
#
# Disc length: 2925 seconds
#
# Revision: 1
# Processed by: cddbd v1.5.2PL0 Copyright (c) Steve Scherf et al.
# Submitted via: audiograbber 1.83.01
#
DISCID=d40b6b0f
DTITLE=Country Chaps - Back To The Country
DYEAR=1900
DGENRE=Country
TTITLE0=Wabash Cannobball
TTITLE1=East Bound And Down
TTITLE2=Tempted
TTITLE3=Foggy Mountain Breakdown
TTITLE4=Get BackTo The Country
TTITLE5=City Of New Orleans
TTITLE6=Duelling Banjos
TTITLE7=I Need More Of You
TTITLE8=Dixiland Delight
TTITLE9=Johnny Cash Medley
TTITLE10=Dixi
TTITLE11=Praise The Lord
TTITLE12=Laß Die Zügel Los
TTITLE13=Old Joe Clark
TTITLE14=Wilde Pferde
EXTD=
EXTT0=
EXTT1=
EXTT2=
EXTT3=
EXTT4=
EXTT5=
EXTT6=
EXTT7=
EXTT8=
EXTT9=
EXTT10=
EXTT11=
EXTT12=
EXTT13=
EXTT14=
PLAYORDER=
